# xmcd
#
# Track frame offsets:
#	150
#	19536
#	38989
#	54391
#	69326
#	87347
#	103946
#	122083
#	136229
#	153592
#	168496
#	191950
#	209864
#	226310
#	244644
#	265026
#
# Disc length: 3838 seconds
#
# Revision: 0
# Processed by: cddbd v1.5.2PL0 Copyright (c) Steve Scherf et al.
# Submitted via: EasyCDDAExtractor 11.0.2.1
#
DISCID=e20efc10
DTITLE=Ricardo Montaner - Serie 32 - CD 2
DYEAR=2001
DGENRE=Latin
TTITLE0=Me Va A Extrañar (Unchain My Heart)
TTITLE1=Te Presiento
TTITLE2=Yo Sin Ti (Senza Lei)
TTITLE3=Ciudadano Enmascarado
TTITLE4=Castillo Azul
TTITLE5=Vivir Con Animo
TTITLE6=Piel Adentro
TTITLE7=No Me Entregues Tu Amor
TTITLE8=Al Final Del Arcoiris
TTITLE9=Media Naranja
TTITLE10=Los Hijos Del Sol
TTITLE11=Sabor A Nada
TTITLE12=Con Amor
TTITLE13=Cuando Nacen Amores
TTITLE14=Honda
TTITLE15=A Donde Vas Mujer
EXTD=
EXTT0=
EXTT1=
EXTT2=
EXTT3=
EXTT4=
EXTT5=
EXTT6=
EXTT7=
EXTT8=
EXTT9=
EXTT10=
EXTT11=
EXTT12=
EXTT13=
EXTT14=
EXTT15=
PLAYORDER=
